<svg width="18" height="18" viewBox="0 0 18 18" fill="none" xmlns="http://www.w3.org/2000/svg">
<path fill-rule="evenodd" clip-rule="evenodd" d="M13.875 10.5C12.4253 10.5 11.25 11.5938 11.25 12.943C11.25 14.2816 12.0878 15.8437 13.395 16.4023C13.6997 16.5326 14.0503 16.5326 14.355 16.4023C15.6622 15.8437 16.5 14.2816 16.5 12.943C16.5 11.5938 15.3247 10.5 13.875 10.5ZM13.875 13.875C14.2892 13.875 14.625 13.5392 14.625 13.125C14.625 12.7108 14.2892 12.375 13.875 12.375C13.4608 12.375 13.125 12.7108 13.125 13.125C13.125 13.5392 13.4608 13.875 13.875 13.875Z" fill="#303030"/>
<path fill-rule="evenodd" clip-rule="evenodd" d="M4.125 1.5C2.67525 1.5 1.5 2.59376 1.5 3.94299C1.5 5.28164 2.33781 6.84372 3.64498 7.40233C3.9497 7.53256 4.3003 7.53256 4.60502 7.40233C5.91219 6.84372 6.75 5.28164 6.75 3.94299C6.75 2.59376 5.57475 1.5 4.125 1.5ZM4.125 4.875C4.53921 4.875 4.875 4.53921 4.875 4.125C4.875 3.71079 4.53921 3.375 4.125 3.375C3.71079 3.375 3.375 3.71079 3.375 4.125C3.375 4.53921 3.71079 4.875 4.125 4.875Z" fill="#303030"/>
<path fill-rule="evenodd" clip-rule="evenodd" d="M8.4366 3.75C8.4366 3.43934 8.68844 3.1875 8.9991 3.1875H12.098C14.1614 3.1875 14.9461 5.88225 13.2053 6.99005L5.39687 11.9591C4.60558 12.4626 4.96227 13.6875 5.90018 13.6875H7.6411L7.47635 13.5227C7.25668 13.3031 7.25668 12.9469 7.47635 12.7273C7.69602 12.5076 8.05217 12.5076 8.27184 12.7273L9.39684 13.8523C9.61651 14.0719 9.61651 14.4281 9.39684 14.6477L8.27184 15.7727C8.05217 15.9924 7.69602 15.9924 7.47635 15.7727C7.25668 15.5531 7.25668 15.1969 7.47635 14.9773L7.6411 14.8125H5.90018C3.83675 14.8125 3.05206 12.1177 4.79288 11.0099L12.6013 6.04093C13.3926 5.53739 13.0359 4.3125 12.098 4.3125H8.9991C8.68844 4.3125 8.4366 4.06066 8.4366 3.75Z" fill="#303030"/>
</svg>
