<svg width="24" height="24" viewBox="0 0 24 24" fill="none" xmlns="http://www.w3.org/2000/svg">
<path fill-rule="evenodd" clip-rule="evenodd" d="M12.001 1.25C7.72081 1.25 4.25102 4.71979 4.25102 9V9.7041C4.25102 10.401 4.04473 11.0824 3.65814 11.6622L2.50954 13.3851C1.17644 15.3848 2.19415 18.1028 4.51274 18.7351C5.26836 18.9412 6.03035 19.1155 6.79676 19.2581L6.79865 19.2632C7.56765 21.3151 9.62296 22.75 12.001 22.75C14.3789 22.75 16.4343 21.3151 17.2033 19.2632L17.2051 19.2581C17.9716 19.1155 18.7336 18.9412 19.4893 18.7351C21.8079 18.1028 22.8256 15.3848 21.4925 13.3851L20.3439 11.6622C19.9573 11.0824 19.751 10.401 19.751 9.7041V9C19.751 4.71979 16.2812 1.25 12.001 1.25ZM15.3774 19.537C13.1345 19.805 10.8674 19.8049 8.62447 19.5369C9.33542 20.5585 10.572 21.25 12.001 21.25C13.4299 21.25 14.6665 20.5585 15.3774 19.537ZM5.75102 9C5.75102 5.54822 8.54924 2.75 12.001 2.75C15.4528 2.75 18.251 5.54822 18.251 9V9.7041C18.251 10.6972 18.545 11.668 19.0958 12.4943L20.2444 14.2172C21.0096 15.3649 20.4254 16.925 19.0946 17.288C14.4504 18.5546 9.55167 18.5546 4.90742 17.288C3.57659 16.925 2.99244 15.3649 3.75762 14.2172L4.90622 12.4943C5.45707 11.668 5.75102 10.6972 5.75102 9.7041V9Z" fill="#303030"/>
</svg>
