<svg width="25" height="28" viewBox="0 0 25 28" fill="none" xmlns="http://www.w3.org/2000/svg">
<path fill-rule="evenodd" clip-rule="evenodd" d="M21.25 9C21.25 9.41421 20.9142 9.75 20.5 9.75L4.5 9.75C4.08579 9.75 3.75 9.41421 3.75 9C3.75 8.58579 4.08579 8.25 4.5 8.25L20.5 8.25C20.9142 8.25 21.25 8.58579 21.25 9Z" fill="#303030"/>
<path fill-rule="evenodd" clip-rule="evenodd" d="M17.5 14.25C17.5 14.6642 17.2314 15 16.9 15L4.1 15C3.76863 15 3.5 14.6642 3.5 14.25C3.5 13.8358 3.76863 13.5 4.1 13.5L16.9 13.5C17.2314 13.5 17.5 13.8358 17.5 14.25Z" fill="#303030"/>
<path fill-rule="evenodd" clip-rule="evenodd" d="M21.25 19C21.25 19.4142 20.9142 19.75 20.5 19.75L4.5 19.75C4.08579 19.75 3.75 19.4142 3.75 19C3.75 18.5858 4.08579 18.25 4.5 18.25L20.5 18.25C20.9142 18.25 21.25 18.5858 21.25 19Z" fill="#303030"/>
</svg>
