<svg width="22" height="22" viewBox="0 0 22 22" fill="none" xmlns="http://www.w3.org/2000/svg">
<path fill-rule="evenodd" clip-rule="evenodd" d="M11.0005 7.25C8.92942 7.25 7.25049 8.92893 7.25049 11C7.25049 13.0711 8.92942 14.75 11.0005 14.75C13.0716 14.75 14.7505 13.0711 14.7505 11C14.7505 8.92893 13.0716 7.25 11.0005 7.25ZM8.75049 11C8.75049 9.75736 9.75785 8.75 11.0005 8.75C12.2431 8.75 13.2505 9.75736 13.2505 11C13.2505 12.2426 12.2431 13.25 11.0005 13.25C9.75785 13.25 8.75049 12.2426 8.75049 11Z" fill="#303030"/>
<path fill-rule="evenodd" clip-rule="evenodd" d="M10.9752 0.25C10.5308 0.249993 10.1597 0.249987 9.85511 0.27077C9.53802 0.292406 9.23849 0.339049 8.9481 0.459332C8.27427 0.73844 7.73892 1.27379 7.45981 1.94762C7.31451 2.29842 7.27516 2.66812 7.26013 3.06996C7.24805 3.39299 7.08502 3.66251 6.84444 3.80141C6.60386 3.94031 6.28894 3.94673 6.00315 3.79568C5.64762 3.60777 5.30777 3.45699 4.93132 3.40743C4.20822 3.31223 3.47691 3.50819 2.89828 3.95219C2.64892 4.14353 2.45876 4.3796 2.28147 4.6434C2.11117 4.89681 1.92565 5.21815 1.70343 5.60307L1.67817 5.64681C1.45594 6.03172 1.27042 6.35304 1.13611 6.62723C0.996296 6.91267 0.886927 7.19539 0.845901 7.50701C0.750702 8.23012 0.946656 8.96142 1.39065 9.54005C1.62177 9.84125 1.92222 10.0602 2.26266 10.2741C2.53644 10.4461 2.68837 10.7221 2.68835 11C2.68834 11.2778 2.53641 11.5538 2.26266 11.7258C1.92218 11.9397 1.62169 12.1587 1.39055 12.4599C0.946558 13.0385 0.750604 13.7698 0.845803 14.4929C0.886829 14.8045 0.996198 15.0873 1.13601 15.3727C1.27032 15.6469 1.45584 15.9682 1.67807 16.3531L1.70333 16.3969C1.92555 16.7818 2.11107 17.1031 2.28138 17.3565C2.45866 17.6203 2.64882 17.8564 2.89818 18.0477C3.47681 18.4917 4.20812 18.6877 4.93122 18.5925C5.30766 18.5429 5.64748 18.3922 6.00299 18.2043C6.28882 18.0532 6.60378 18.0596 6.84439 18.1986C7.085 18.3375 7.24805 18.607 7.26013 18.9301C7.27516 19.3319 7.31451 19.7016 7.45981 20.0524C7.73892 20.7262 8.27427 21.2616 8.9481 21.5407C9.23849 21.661 9.53802 21.7076 9.85511 21.7292C10.1597 21.75 10.5308 21.75 10.9752 21.75H11.0257C11.4702 21.75 11.8412 21.75 12.1458 21.7292C12.4629 21.7076 12.7625 21.661 13.0529 21.5407C13.7267 21.2616 14.262 20.7262 14.5411 20.0524C14.6865 19.7016 14.7258 19.3319 14.7408 18.93C14.7529 18.607 14.9159 18.3375 15.1565 18.1985C15.3971 18.0596 15.7121 18.0532 15.9979 18.2042C16.3534 18.3921 16.6932 18.5429 17.0696 18.5924C17.7927 18.6876 18.5241 18.4917 19.1027 18.0477C19.352 17.8563 19.5422 17.6203 19.7195 17.3565C19.8898 17.1031 20.0753 16.7818 20.2975 16.3969L20.3228 16.3531C20.545 15.9682 20.7306 15.6468 20.8649 15.3726C21.0047 15.0872 21.114 14.8045 21.1551 14.4929C21.2503 13.7697 21.0543 13.0384 20.6103 12.4598C20.3792 12.1586 20.0787 11.9397 19.7382 11.7258C19.4645 11.5538 19.3126 11.2778 19.3126 10.9999C19.3126 10.7221 19.4645 10.4462 19.7382 10.2742C20.0787 10.0603 20.3793 9.84136 20.6104 9.54012C21.0544 8.96149 21.2504 8.23019 21.1552 7.50708C21.1141 7.19546 21.0048 6.91274 20.8649 6.6273C20.7307 6.35313 20.5451 6.03183 20.3229 5.64695L20.2977 5.60318C20.0754 5.21825 19.8899 4.89688 19.7196 4.64347C19.5423 4.37967 19.3521 4.1436 19.1028 3.95225C18.5241 3.50826 17.7928 3.3123 17.0697 3.4075C16.6933 3.45706 16.3535 3.60782 15.998 3.79572C15.7121 3.94679 15.3972 3.94036 15.1566 3.80144C14.916 3.66253 14.7529 3.39297 14.7408 3.06991C14.7258 2.66808 14.6864 2.2984 14.5411 1.94762C14.262 1.27379 13.7267 0.73844 13.0529 0.459332C12.7625 0.339049 12.4629 0.292406 12.1458 0.27077C11.8412 0.249987 11.4702 0.249993 11.0257 0.25H10.9752ZM9.52213 1.84515C9.59928 1.81319 9.71649 1.78372 9.95722 1.76729C10.2047 1.75041 10.5243 1.75 11.0005 1.75C11.4767 1.75 11.7963 1.75041 12.0437 1.76729C12.2845 1.78372 12.4017 1.81319 12.4788 1.84515C12.7851 1.97202 13.0285 2.21536 13.1553 2.52165C13.1953 2.61826 13.2285 2.76887 13.2419 3.12597C13.2715 3.91835 13.6805 4.68129 14.4066 5.10048C15.1326 5.51968 15.9979 5.4924 16.6989 5.12188C17.0148 4.9549 17.1618 4.90832 17.2655 4.89467C17.5942 4.8514 17.9266 4.94047 18.1896 5.14228C18.2559 5.19312 18.34 5.27989 18.4746 5.48016C18.613 5.68603 18.7731 5.9626 19.0112 6.375C19.2493 6.78741 19.4088 7.06438 19.5179 7.28713C19.624 7.50382 19.6571 7.62007 19.668 7.70287C19.7113 8.03155 19.6222 8.36397 19.4204 8.62698C19.3567 8.70995 19.2428 8.81399 18.9402 9.00414C18.2689 9.42595 17.8127 10.1616 17.8126 10.9999C17.8126 11.8383 18.2688 12.574 18.9402 12.9959C19.2428 13.186 19.3566 13.29 19.4203 13.373C19.6221 13.636 19.7112 13.9684 19.6679 14.2971C19.657 14.3799 19.6239 14.4961 19.5178 14.7128C19.4087 14.9355 19.2492 15.2125 19.0111 15.6249C18.773 16.0373 18.6129 16.3139 18.4745 16.5198C18.3399 16.72 18.2558 16.8068 18.1895 16.8576C17.9265 17.0595 17.5941 17.1485 17.2654 17.1053C17.1618 17.0916 17.0147 17.045 16.6988 16.8781C15.9978 16.5075 15.1325 16.4803 14.4064 16.8995C13.6804 17.3187 13.2715 18.0816 13.2419 18.874C13.2285 19.2311 13.1954 19.3817 13.1553 19.4784C13.0285 19.7846 12.7851 20.028 12.4788 20.1549C12.4017 20.1868 12.2845 20.2163 12.0437 20.2327C11.7963 20.2496 11.4767 20.25 11.0005 20.25C10.5243 20.25 10.2047 20.2496 9.95722 20.2327C9.71649 20.2163 9.59928 20.1868 9.52213 20.1549C9.21584 20.028 8.9725 19.7846 8.84563 19.4784C8.80561 19.3817 8.77244 19.2311 8.75908 18.874C8.72945 18.0817 8.32046 17.3187 7.59439 16.8995C6.86832 16.4803 6.00311 16.5076 5.30207 16.8781C4.98614 17.0451 4.83912 17.0917 4.73544 17.1053C4.40675 17.1486 4.07434 17.0595 3.81132 16.8577C3.74507 16.8069 3.66094 16.7201 3.52635 16.5198C3.38799 16.314 3.22785 16.0374 2.98974 15.625C2.75164 15.2126 2.5922 14.9356 2.48309 14.7129C2.37695 14.4962 2.34387 14.3799 2.33297 14.2971C2.2897 13.9684 2.37877 13.636 2.58058 13.373C2.64425 13.2901 2.7581 13.186 3.06069 12.9959C3.73207 12.5741 4.18831 11.8384 4.18835 11.0001C4.1884 10.1616 3.73214 9.42587 3.0607 9.00398C2.75817 8.81389 2.64434 8.70987 2.58068 8.62691C2.37887 8.3639 2.2898 8.03149 2.33307 7.7028C2.34397 7.62001 2.37705 7.50375 2.48319 7.28707C2.5923 7.06431 2.75174 6.78734 2.98984 6.37493C3.22794 5.96253 3.38809 5.68596 3.52645 5.48009C3.66103 5.27983 3.74517 5.19305 3.81142 5.14222C4.07444 4.9404 4.40685 4.85133 4.73553 4.8946C4.83922 4.90825 4.98625 4.95483 5.30222 5.12184C6.00322 5.49235 6.8684 5.51962 7.59443 5.10045C8.32047 4.68128 8.72945 3.91837 8.75908 3.12602C8.77244 2.76889 8.80561 2.61827 8.84563 2.52165C8.9725 2.21536 9.21584 1.97202 9.52213 1.84515Z" fill="#303030"/>
</svg>
