<svg width="18" height="18" viewBox="0 0 18 18" fill="none" xmlns="http://www.w3.org/2000/svg">
<path d="M17.9002 4.65156C18 5.78691 18 7.20215 18 8.99707C18 12.7174 18 14.8065 17.1113 16.1532L11.755 10.7969L17.9002 4.65156Z" fill="#20205B"/>
<path d="M16.1568 17.108L10.8004 11.7515L4.6545 17.8973C5.78985 17.9971 7.20508 17.9971 9 17.9971C12.7209 17.9971 14.8102 17.9971 16.1568 17.108Z" fill="#20205B"/>
<path fill-rule="evenodd" clip-rule="evenodd" d="M9 -0.00292969C13.2426 -0.00292969 15.364 -0.00292969 16.682 1.31509C17.1355 1.76857 17.4329 2.31715 17.628 3.0145L3.01743 17.6251C2.32008 17.43 1.7715 17.1325 1.31802 16.6791C0 15.361 0 13.2397 0 8.99707C0 4.75443 0 2.63311 1.31802 1.31509C2.63604 -0.00292969 4.75736 -0.00292969 9 -0.00292969ZM3.15 6.07866C3.15 7.68504 4.15537 9.55954 5.72397 10.2299C6.08964 10.3861 6.51036 10.3861 6.87603 10.2299C8.44463 9.55954 9.45 7.68504 9.45 6.07866C9.45 4.45959 8.0397 3.14707 6.3 3.14707C4.5603 3.14707 3.15 4.45959 3.15 6.07866Z" fill="#20205B"/>
<path d="M7.65 6.29707C7.65 7.04265 7.04558 7.64707 6.3 7.64707C5.55442 7.64707 4.95 7.04265 4.95 6.29707C4.95 5.55149 5.55442 4.94707 6.3 4.94707C7.04558 4.94707 7.65 5.55149 7.65 6.29707Z" fill="#20205B"/>
</svg>
